#!OML:ASF I:\Actors\actors\Patient Classification 1\Patient 1\Session 1\Subject1.ASF
:FULLY-SPECIFIED
:DEGREES
796
root -0.0486555 17.4681 8.47392 6.38035 -7.73749 -6.64307
lowerback -2.75304 2.11645 7.19082
upperback -10.9013 3.10086 0.769059
thorax -9.75537 0.925565 -3.34471
lowerneck -10.9373 2.61646 1.34342
upperneck 32.7435 -0.0208727 10.7244
head 12.7292 1.55293 3.93648
rclavicle 9.24349e-015 -3.57812e-015
rhumerus -57.9954 -28.2741 -54.1932
rradius 21.4325
rwrist 48.4516
rhand -1.8991 -34.232
rfingers 7.12502
rthumb 23.7702 297.218
lclavicle 9.24349e-015 -3.57812e-015
lhumerus -52.2592 33.5129 52.8758
lradius 14.3927
lwrist -57.207
lhand -34.165 -31.3872
lfingers 7.12502
lthumb -7.33888 -1.53444
rfemur 2.86448 25.5456 24.4592
rtibia 1.14657
rfoot -12.7167 -20.4306
rtoes -2.21918
lfemur 16.7355 -41.1332 -25.8389
ltibia -5.54487
lfoot -24.0862 52.8572
ltoes 14.3769
797
root -0.0589014 17.4667 8.47775 6.2495 -7.85654 -6.67832
lowerback -2.74282 2.1191 7.2005
upperback -10.8315 3.10094 0.76235
thorax -9.6807 0.928729 -3.35634
lowerneck -11.0503 2.53441 1.3878
upperneck 33.0834 -0.180701 10.6849
head 12.9103 1.49192 3.91684
rclavicle 9.0447e-015 -2.28602e-014
rhumerus -59.6797 -30.5208 -50.6569
rradius 20.5429
rwrist 50.9874
rhand -1.42006 -33.451
rfingers 7.12502
rthumb 24.2295 298.06
lclavicle 9.0447e-015 -2.28602e-014
lhumerus -55.3965 37.2816 46.9556
lradius 13.4034
lwrist -63.0652
lhand -34.5355 -31.3987
lfingers 7.12502
lthumb -7.69643 -1.55874
rfemur 3.0164 25.4459 24.5763
rtibia 1.13998
rfoot -12.6892 -20.1958
rtoes -2.16697
lfemur 17.0007 -41.0508 -25.9578
ltibia -5.5438
lfoot -24.4066 52.8591
ltoes 14.7061
798
root -0.0689921 17.4636 8.47806 6.16976 -7.96202 -6.7068
lowerback -2.72721 2.11596 7.1905
upperback -10.7786 3.09409 0.754821
thorax -9.63001 0.928836 -3.3582
lowerneck -11.0756 2.46306 1.48535
upperneck 33.3257 -0.29633 10.5588
head 13.029 1.44196 3.84997
rclavicle -3.57812e-015 -1.70955e-014
rhumerus -62.0009 -33.4395 -45.6797
rradius 19.1968
rwrist 55.1042
rhand -0.968666 -32.4789
rfingers 7.12502
rthumb 24.6622 299.09
lclavicle -3.57812e-015 -1.70955e-014
lhumerus -60.0019 41.3757 39.1937
lradius 12.5073
lwrist -70.2442
lhand -34.7062 -31.3741
lfingers 7.12502
lthumb -7.86119 -1.54022
rfemur 3.07517 25.3332 24.6459
rtibia 1.15411
rfoot -12.6396 -19.9679
rtoes -2.21543
lfemur 17.0751 -40.8292 -25.9165
ltibia -5.50717
lfoot -24.5486 52.7161
ltoes 14.7513
799
root -0.0803478 17.4615 8.47648 6.12835 -8.06933 -6.70897
lowerback -2.72443 2.11978 7.14391
upperback -10.7523 3.09452 0.731438
thorax -9.60121 0.933417 -3.35702
lowerneck -11.0095 2.36774 1.51129
upperneck 33.4755 -0.425595 10.4616
head 13.0877 1.37627 3.79648
rclavicle -1.43125e-014 -2.74323e-014
rhumerus -65.5282 -36.8039 -38.9552
rradius 17.7702
rwrist 61.2407
rhand -0.830025 -31.4864
rfingers 7.12502
rthumb 24.7951 300.101
lclavicle -1.43125e-014 -2.74323e-014
lhumerus -66.1967 45.138 29.7611
lradius 11.836
lwrist -78.1505
lhand -34.742 -31.1483
lfingers 7.12502
lthumb -7.8958 -1.31575
rfemur 3.06868 25.192 24.6569
rtibia 1.16936
rfoot -12.5632 -19.7206
rtoes -2.44557
lfemur 17.0393 -40.5233 -25.7987
ltibia -5.47878
lfoot -24.4752 52.5151
ltoes 14.6255
800
root -0.0910116 17.4616 8.47472 6.08457 -8.1657 -6.70693
lowerback -2.71836 2.13085 7.11506
upperback -10.7265 3.10398 0.685392
thorax -9.57233 0.939716 -3.39042
lowerneck -11.0174 2.2411 1.40668
upperneck 33.6491 -0.614836 10.4851
head 13.1759 1.28501 3.80977
rclavicle 1.02374e-014 -1.23246e-014
rhumerus -70.354 -40.0314 -30.8849
rradius 16.7571
rwrist 68.4736
rhand -0.5378 -31.2645
rfingers 7.12502
rthumb 25.0752 300.362
lclavicle 1.02374e-014 -1.23246e-014
lhumerus -72.9273 47.7581 20.156
lradius 11.4155
lwrist -85.5714
lhand -34.7889 -30.6941
lfingers 7.12502
lthumb -7.94103 -0.863306
rfemur 3.07757 25.0999 24.6783
rtibia 1.19212
rfoot -12.5002 -19.5158
rtoes -2.50193
lfemur 17.0683 -40.368 -25.7577
ltibia -5.47032
lfoot -24.485 52.4316
ltoes 14.5508
801
root -0.100485 17.4615 8.47175 6.0853 -8.24618 -6.73224
lowerback -2.73464 2.15334 7.10359
upperback -10.6999 3.12829 0.652626
thorax -9.52799 0.953272 -3.41888
lowerneck -11.1722 2.08664 1.16423
upperneck 33.9102 -0.866209 10.6275
head 13.3393 1.16927 3.89669
rclavicle -2.57426e-014 -8.74653e-015
rhumerus -75.1865 -42.3463 -23.4158
rradius 16.3189
rwrist 74.2312
rhand 0.426957 -32.4403
rfingers 7.12502
rthumb 25.9993 299.318
lclavicle -2.57426e-014 -8.74653e-015
lhumerus -79.4837 49.3302 11.1683
lradius 11.1702
lwrist -92.1751
lhand -34.7559 -30.0684
lfingers 7.12502
lthumb -7.90921 -0.236319
rfemur 3.03161 25.1353 24.7372
rtibia 1.26438
rfoot -12.482 -19.4369
rtoes -2.20505
lfemur 17.0487 -40.2923 -25.6734
ltibia -5.46284
lfoot -24.4808 52.4365
ltoes 14.4111
802
root -0.109224 17.462 8.47133 6.05877 -8.3726 -6.72956
lowerback -2.7568 2.20294 7.05899
upperback -10.6365 3.18646 0.629665
thorax -9.43571 0.989664 -3.41884
lowerneck -11.4556 1.88766 0.806904
upperneck 34.2216 -1.18962 10.8401
head 13.5616 1.01982 4.03003
rclavicle -3.08116e-015 -1.31198e-014
rhumerus -78.8398 -43.6227 -18.0655
rradius 16.1507
rwrist 77.9293
rhand 0.779908 -34.0082
rfingers 7.12502
rthumb 26.3372 297.801
lclavicle -3.08116e-015 -1.31198e-014
lhumerus -84.8171 50.0276 4.02608
lradius 11.0394
lwrist -97.3841
lhand -34.6129 -29.4794
lfingers 7.12502
lthumb -7.77115 0.357832
rfemur 3.02493 25.1803 24.7711
rtibia 1.31434
rfoot -12.4587 -19.3267
rtoes -2.05034
lfemur 17.1508 -40.332 -25.7678
ltibia -5.42793
lfoot -24.6492 52.6201
ltoes 14.4246
803
root -0.116942 17.4634 8.47451 5.9746 -8.51791 -6.70266
lowerback -2.76875 2.2845 7.01317
upperback -10.5304 3.28467 0.580714
thorax -9.29521 1.0475 -3.44682
lowerneck -11.5496 1.69813 0.644141
upperneck 34.2058 -1.43223 10.8299
head 13.5923 0.890793 4.02192
rclavicle 1.08338e-014 3.57812e-015
rhumerus -80.709 -44.0609 -15.5649
rradius 16.0692
rwrist 79.7153
rhand 0.372037 -35.2838
rfingers 7.12502
rthumb 25.9467 296.467
lclavicle 1.08338e-014 3.57812e-015
lhumerus -88.0443 50.1779 -0.340778
lradius 10.9683
lwrist -100.889
lhand -34.3472 -29.1338
lfingers 7.12502
lthumb -7.51466 0.712766
rfemur 3.1294 25.1345 24.7897
rtibia 1.26598
rfoot -12.3377 -19.1321
rtoes -2.3845
lfemur 17.437 -40.528 -26.0769
ltibia -5.36416
lfoot -25.221 52.8939
ltoes 14.8153
804
root -0.124356 17.4632 8.47424 5.98096 -8.57118 -6.6925
lowerback -2.79121 2.3554 6.95229
upperback -10.484 3.37047 0.530185
thorax -9.21835 1.0967 -3.46822
lowerneck -11.4523 1.4994 0.679957
upperneck 34.0366 -1.642 10.5999
head 13.5084 0.765694 3.87809
rclavicle 1.33186e-014 -2.14687e-014
rhumerus -81.0031 -43.9539 -15.3846
rradius 16.0595
rwrist 79.9705
rhand 0.26389 -36.1532
rfingers 7.12502
rthumb 25.8431 295.583
lclavicle 1.33186e-014 -2.14687e-014
lhumerus -90.4 50.1469 -3.58157
lradius 10.9334
lwrist -103.663
lhand -33.9383 -28.9852
lfingers 7.12502
lthumb -7.12004 0.875073
rfemur 3.13525 25.0626 24.7903
rtibia 1.20871
rfoot -12.182 -19.0009
rtoes -2.75606
lfemur 17.5127 -40.6489 -26.1653
ltibia -5.33797
lfoot -25.6101 52.9943
ltoes 15.077
805
root -0.132954 17.462 8.4699 6.04418 -8.56858 -6.71435
lowerback -2.79337 2.3874 6.85976
upperback -10.4881 3.41124 0.529877
thorax -9.22 1.12462 -3.41892
lowerneck -11.319 1.31471 0.635156
upperneck 33.8873 -1.81628 10.3894
head 13.4214 0.647795 3.76312
rclavicle 2.16675e-014 -1.19271e-014
rhumerus -80.7148 -43.6569 -15.9216
rradius 16.0812
rwrist 79.8824
rhand 0.713499 -36.0991
rfingers 7.12502
rthumb 26.2736 295.7
lclavicle 2.16675e-014 -1.19271e-014
lhumerus -92.4121 49.9952 -6.2737
lradius 10.9225
lwrist -105.849
lhand -33.4754 -28.8032
lfingers 7.12502
lthumb -6.67314 1.07167
rfemur 3.05482 25.0334 24.8134
rtibia 1.2061
rfoot -12.1042 -18.9559
rtoes -2.84887
lfemur 17.467 -40.6954 -26.0586
ltibia -5.41205
lfoot -25.6393 53.0421
ltoes 15.0858
806
root -0.140738 17.4618 8.46457 6.11253 -8.5443 -6.80021
lowerback -2.77936 2.40837 6.84713
upperback -10.4739 3.44151 0.551138
thorax -9.21053 1.14257 -3.3908
lowerneck -11.267 1.13727 0.580312
upperneck 33.7601 -1.99207 10.2046
head 13.3628 0.533635 3.66408
rclavicle -1.39149e-015 -1.27222e-014
rhumerus -80.7846 -43.5375 -15.86
rradius 16.0722
rwrist 80.1942
rhand 1.45336 -35.1587
rfingers 7.12502
rthumb 26.9817 296.748
lclavicle -1.39149e-015 -1.27222e-014
lhumerus -93.4634 49.8108 -7.6426
lradius 10.9198
lwrist -107.013
lhand -33.0754 -28.525
lfingers 7.12502
lthumb -6.28697 1.36167
rfemur 2.96677 25.0251 24.9074
rtibia 1.21956
rfoot -12.1141 -18.9447
rtoes -2.70903
lfemur 17.3885 -40.7149 -25.8417
ltibia -5.48915
lfoot -25.5511 53.0661
ltoes 14.9513
807
root -0.145898 17.4623 8.45805 6.18489 -8.46332 -6.88982
lowerback -2.73244 2.42109 6.88081
upperback -10.4438 3.46324 0.555657
thorax -9.20094 1.15196 -3.40707
lowerneck -11.3392 0.93335 0.50326
upperneck 33.6502 -2.21722 10.044
head 13.3434 0.401176 3.57568
rclavicle -2.98177e-016 -8.74653e-015
rhumerus -81.1637 -43.5998 -15.3383
rradius 16.0394
rwrist 80.5107
rhand 2.16815 -34.0239
rfingers 7.12502
rthumb 27.6654 297.991
lclavicle -2.98177e-016 -8.74653e-015
lhumerus -93.8826 49.6699 -8.1716
lradius 10.9142
lwrist -107.502
lhand -32.832 -28.3426
lfingers 7.12502
lthumb -6.052 1.55099
rfemur 2.87337 25.0215 25.0017
rtibia 1.23136
rfoot -12.158 -18.9793
rtoes -2.43142
lfemur 17.1819 -40.6409 -25.5323
ltibia -5.48408
lfoot -25.3442 52.9404
ltoes 14.6767
808
root -0.150827 17.4636 8.44983 6.22666 -8.34416 -6.91837
lowerback -2.63609 2.41744 6.8344
upperback -10.4119 3.46473 0.551772
thorax -9.22269 1.15646 -3.38961
lowerneck -11.3975 0.698862 0.254919
upperneck 33.4603 -2.48398 10.0277
head 13.2913 0.244617 3.56578
rclavicle -2.67365e-014 1.86858e-014
rhumerus -81.0222 -43.5499 -15.6315
rradius 16.09
rwrist 79.8247
rhand 2.75538 -33.2773
rfingers 7.12502
rthumb 28.2268 298.829
lclavicle -2.67365e-014 1.86858e-014
lhumerus -94.0946 49.5512 -8.39558
lradius 10.9036
lwrist -107.603
lhand -32.7104 -28.2972
lfingers 7.12502
lthumb -5.93459 1.59969
rfemur 2.79473 25.0085 25.0421
rtibia 1.24604
rfoot -12.1282 -19.0702
rtoes -2.446
lfemur 16.9368 -40.5246 -25.2605
ltibia -5.43066
lfoot -25.0556 52.7266
ltoes 14.5102
